<svg width="16" height="17" viewBox="0 0 16 17" fill="none" xmlns="http://www.w3.org/2000/svg">
<path d="M10.9905 2.13672H5.00002C3.3524 2.13672 2.00002 3.4891 2.00002 5.14624V11.1367C2.00002 12.7843 3.3524 14.1367 5.00002 14.1367H10.9905C12.6476 14.1367 14 12.7843 14 11.1272V5.14624C14 3.4891 12.6476 2.13672 10.9905 2.13672ZM9.60954 8.13672H8.47621V11.851H7.04763V8.13672H6.28573V6.61291H6.9524V5.96529C6.9524 5.35577 7.25716 4.39386 8.54287 4.39386H9.7143V5.66053H8.88573C8.7524 5.66053 8.57144 5.74624 8.57144 6.04148V6.61291H9.74287L9.60954 8.13672Z" fill="white"/>
</svg>
