<svg width="16" height="17" viewBox="0 0 16 17" fill="none" xmlns="http://www.w3.org/2000/svg">
<path d="M10 8.13672C10 8.53228 9.88272 8.91896 9.66295 9.24786C9.44319 9.57676 9.13083 9.8331 8.76538 9.98448C8.39993 10.1359 7.9978 10.1755 7.60983 10.0983C7.22187 10.0211 6.86551 9.83064 6.5858 9.55093C6.3061 9.27123 6.11561 8.91486 6.03844 8.5269C5.96127 8.13894 6.00088 7.7368 6.15226 7.37135C6.30363 7.0059 6.55998 6.69354 6.88888 6.47378C7.21777 6.25402 7.60445 6.13672 8.00002 6.13672C8.53026 6.13733 9.03862 6.34823 9.41356 6.72318C9.7885 7.09812 9.99941 7.60647 10 8.13672ZM14.25 5.38672V10.8867C14.249 11.8147 13.8799 12.7043 13.2237 13.3604C12.5676 14.0166 11.6779 14.3857 10.75 14.3867H5.25002C4.32208 14.3857 3.43245 14.0166 2.7763 13.3604C2.12015 12.7043 1.75107 11.8147 1.75002 10.8867V5.38672C1.75107 4.45878 2.12015 3.56916 2.7763 2.91301C3.43245 2.25686 4.32208 1.88777 5.25002 1.88672H10.75C11.6779 1.88777 12.5676 2.25686 13.2237 2.91301C13.8799 3.56916 14.249 4.45878 14.25 5.38672ZM11 8.13672C11 7.54338 10.8241 6.96336 10.4944 6.47001C10.1648 5.97666 9.69624 5.59214 9.14807 5.36508C8.59989 5.13802 7.99669 5.07861 7.41474 5.19436C6.8328 5.31012 6.29825 5.59584 5.8787 6.0154C5.45914 6.43496 5.17342 6.9695 5.05766 7.55145C4.9419 8.13339 5.00131 8.73659 5.22838 9.28477C5.45544 9.83295 5.83996 10.3015 6.3333 10.6311C6.82665 10.9608 7.40667 11.1367 8.00002 11.1367C8.79539 11.1358 9.55793 10.8195 10.1203 10.257C10.6828 9.69463 10.9991 8.93209 11 8.13672ZM12 4.88672C12 4.73838 11.956 4.59338 11.8736 4.47004C11.7912 4.3467 11.6741 4.25057 11.537 4.19381C11.4 4.13704 11.2492 4.12219 11.1037 4.15113C10.9582 4.18007 10.8246 4.2515 10.7197 4.35639C10.6148 4.46128 10.5434 4.59491 10.5144 4.7404C10.4855 4.88589 10.5003 5.03669 10.5571 5.17373C10.6139 5.31078 10.71 5.42791 10.8333 5.51032C10.9567 5.59273 11.1017 5.63672 11.25 5.63672C11.4489 5.63672 11.6397 5.5577 11.7803 5.41705C11.921 5.2764 12 5.08563 12 4.88672Z" fill="white"/>
</svg>
