<svg width="71" height="33" viewBox="0 0 71 33" fill="none" xmlns="http://www.w3.org/2000/svg">
<rect y="0.273438" width="71" height="32" rx="16" fill="white" fill-opacity="0.1"/>
<path fill-rule="evenodd" clip-rule="evenodd" d="M19.9333 11.733C19.4917 12.2755 18.75 12.6824 18.1583 12.6824C18.0917 12.6824 18.025 12.6739 17.9833 12.6654C17.975 12.6315 17.9583 12.5298 17.9583 12.4281C17.9583 11.733 18.3 11.0549 18.675 10.6226C19.15 10.0547 19.9417 9.6309 20.6 9.60547C20.6167 9.68176 20.625 9.775 20.625 9.86824C20.625 10.5548 20.3333 11.2414 19.9333 11.733ZM17.0352 22.6877C16.7383 22.8175 16.4568 22.9404 16.075 22.9404C15.2583 22.9404 14.6917 22.1776 14.0417 21.2452C13.2833 20.1432 12.6667 18.4395 12.6667 16.829C12.6667 14.2352 14.325 12.862 15.9583 12.862C16.435 12.862 16.8706 13.0398 17.258 13.1979C17.568 13.3245 17.8471 13.4384 18.0917 13.4384C18.3038 13.4384 18.5681 13.3322 18.8761 13.2083C19.3064 13.0354 19.8221 12.8281 20.4 12.8281C20.7667 12.8281 22.1083 12.862 22.9917 14.1504C22.9866 14.1544 22.9758 14.1617 22.9601 14.1723C22.7427 14.3182 21.5833 15.0967 21.5833 16.6933C21.5833 18.6683 23.275 19.3719 23.3333 19.3888C23.3318 19.3926 23.3284 19.4035 23.3229 19.4208C23.2673 19.5958 23.0022 20.4304 22.4333 21.2791C21.875 22.0928 21.2833 22.9235 20.4 22.9235C19.9646 22.9235 19.6872 22.7985 19.4008 22.6695C19.0951 22.5318 18.7791 22.3895 18.25 22.3895C17.718 22.3895 17.3669 22.5428 17.0352 22.6877Z" fill="white"/>
<path d="M33.348 13.7734L33.628 13.0134H34.948L35.228 13.7734H35.528L34.464 10.9094H34.108L33.056 13.7734H33.348ZM34.248 11.3134C34.264 11.2734 34.28 11.2214 34.284 11.1974C34.288 11.2254 34.308 11.2734 34.32 11.3134L34.856 12.7614H33.716L34.248 11.3134ZM36.2772 13.7734H36.5532L37.3572 11.8374H37.0732L36.5652 13.0854C36.5092 13.2254 36.4572 13.3534 36.4212 13.4854C36.3852 13.3574 36.3332 13.2254 36.2812 13.0854L35.7812 11.8374H35.4852L36.2772 13.7734ZM38.1526 13.8214C38.4806 13.8214 38.7446 13.6774 38.8646 13.4334L38.9006 13.7734H39.1326V12.5214C39.1326 12.0094 38.8046 11.7854 38.3566 11.7854C37.8806 11.7854 37.5606 12.0374 37.5606 12.4294H37.8126C37.8126 12.1694 38.0126 12.0174 38.3486 12.0174C38.6326 12.0174 38.8606 12.1374 38.8606 12.5174V12.5814L38.2206 12.6334C37.7686 12.6694 37.4966 12.8934 37.4966 13.2494C37.4966 13.5894 37.7406 13.8214 38.1526 13.8214ZM38.2166 13.5974C37.9526 13.5974 37.7766 13.4774 37.7766 13.2414C37.7766 13.0254 37.9246 12.8654 38.2886 12.8334L38.8606 12.7894V12.8934C38.8606 13.3134 38.6246 13.5974 38.2166 13.5974ZM39.8224 11.3054C39.9344 11.3054 40.0304 11.2134 40.0304 11.1014C40.0304 10.9894 39.9344 10.8934 39.8224 10.8934C39.7104 10.8934 39.6184 10.9894 39.6184 11.1014C39.6184 11.2134 39.7104 11.3054 39.8224 11.3054ZM39.6864 13.7734H39.9624V11.8374H39.6864V13.7734ZM40.826 13.7734V10.8574H40.55V13.7734H40.826ZM41.969 13.8214C42.297 13.8214 42.561 13.6774 42.681 13.4334L42.717 13.7734H42.949V12.5214C42.949 12.0094 42.621 11.7854 42.173 11.7854C41.697 11.7854 41.377 12.0374 41.377 12.4294H41.629C41.629 12.1694 41.829 12.0174 42.165 12.0174C42.449 12.0174 42.677 12.1374 42.677 12.5174V12.5814L42.037 12.6334C41.585 12.6694 41.313 12.8934 41.313 13.2494C41.313 13.5894 41.557 13.8214 41.969 13.8214ZM42.033 13.5974C41.769 13.5974 41.593 13.4774 41.593 13.2414C41.593 13.0254 41.741 12.8654 42.105 12.8334L42.677 12.7894V12.8934C42.677 13.3134 42.441 13.5974 42.033 13.5974ZM43.7428 13.7734L43.7708 13.3774C43.9068 13.6774 44.1748 13.8214 44.4988 13.8214C45.0628 13.8214 45.3988 13.3894 45.3988 12.8094C45.3988 12.2254 45.0708 11.7854 44.5068 11.7854C44.1788 11.7854 43.9148 11.9294 43.7788 12.2134V10.8574H43.5028V13.7734H43.7428ZM43.7828 12.8014C43.7828 12.3574 44.0308 12.0334 44.4548 12.0334C44.8748 12.0334 45.1188 12.3574 45.1188 12.8014C45.1188 13.2494 44.8748 13.5694 44.4548 13.5694C44.0308 13.5694 43.7828 13.2494 43.7828 12.8014ZM46.1268 13.7734V10.8574H45.8508V13.7734H46.1268ZM47.5258 13.8214C47.9818 13.8214 48.2818 13.6014 48.3858 13.1934H48.1218C48.0498 13.4494 47.8458 13.5854 47.5298 13.5854C47.1138 13.5854 46.8658 13.3134 46.8458 12.8414H48.3858V12.7054C48.3858 12.1574 48.0298 11.7854 47.5058 11.7854C46.9538 11.7854 46.5778 12.2014 46.5778 12.8054C46.5778 13.4134 46.9578 13.8214 47.5258 13.8214ZM47.5058 12.0214C47.8698 12.0214 48.1098 12.2694 48.1098 12.6414H46.8538C46.9018 12.2614 47.1418 12.0214 47.5058 12.0214ZM49.8004 12.8054C49.8004 13.3934 50.2164 13.8214 50.7844 13.8214C51.3524 13.8214 51.7684 13.3934 51.7684 12.8054C51.7684 12.2134 51.3524 11.7854 50.7844 11.7854C50.2164 11.7854 49.8004 12.2134 49.8004 12.8054ZM50.0804 12.8014C50.0804 12.3534 50.3684 12.0334 50.7844 12.0334C51.1964 12.0334 51.4884 12.3534 51.4884 12.8014C51.4884 13.2574 51.1964 13.5734 50.7844 13.5734C50.3684 13.5734 50.0804 13.2574 50.0804 12.8014ZM52.4859 13.7734V12.7614C52.4859 12.3254 52.7099 12.0374 53.1059 12.0374C53.4259 12.0374 53.6299 12.1974 53.6299 12.6494V13.7734H53.9059V12.5894C53.9059 12.1014 53.6859 11.7854 53.1539 11.7854C52.8739 11.7854 52.6179 11.9254 52.4899 12.1734L52.4499 11.8374H52.2099V13.7734H52.4859Z" fill="white"/>
<path d="M33.864 20.7734L34.218 19.7594H35.856L36.21 20.7734H37.02L35.436 16.3874H34.65L33.066 20.7734H33.864ZM34.944 17.6954C34.986 17.5754 35.022 17.4434 35.04 17.3594C35.052 17.4494 35.094 17.5814 35.13 17.6954L35.634 19.1114H34.446L34.944 17.6954ZM37.462 22.1474H38.194V20.3774C38.38 20.6774 38.764 20.8514 39.208 20.8514C40.09 20.8514 40.594 20.1794 40.594 19.2554C40.594 18.3254 40.042 17.7194 39.208 17.7194C38.758 17.7194 38.368 17.9174 38.188 18.2594L38.14 17.8094H37.462V22.1474ZM38.2 19.2914C38.2 18.7574 38.53 18.3854 39.034 18.3854C39.55 18.3854 39.856 18.7634 39.856 19.2914C39.856 19.8194 39.55 20.1914 39.034 20.1914C38.53 20.1914 38.2 19.8254 38.2 19.2914ZM41.1768 22.1474H41.9088V20.3774C42.0948 20.6774 42.4788 20.8514 42.9228 20.8514C43.8048 20.8514 44.3088 20.1794 44.3088 19.2554C44.3088 18.3254 43.7568 17.7194 42.9228 17.7194C42.4728 17.7194 42.0828 17.9174 41.9028 18.2594L41.8548 17.8094H41.1768V22.1474ZM41.9148 19.2914C41.9148 18.7574 42.2448 18.3854 42.7488 18.3854C43.2648 18.3854 43.5708 18.7634 43.5708 19.2914C43.5708 19.8194 43.2648 20.1914 42.7488 20.1914C42.2448 20.1914 41.9148 19.8254 41.9148 19.2914ZM45.6297 20.7734V16.3094H44.9037V20.7734H45.6297ZM47.7235 20.8514C48.4975 20.8514 49.0375 20.4614 49.1635 19.8134H48.4855C48.4015 20.0954 48.1375 20.2514 47.7355 20.2514C47.2495 20.2514 46.9735 19.9874 46.9195 19.4654L49.1515 19.4594V19.2374C49.1515 18.3134 48.5875 17.7194 47.6995 17.7194C46.8295 17.7194 46.2235 18.3614 46.2235 19.2914C46.2235 20.2094 46.8415 20.8514 47.7235 20.8514ZM47.7055 18.3194C48.1435 18.3194 48.4255 18.5894 48.4255 18.9974H46.9375C47.0095 18.5534 47.2735 18.3194 47.7055 18.3194ZM51.7206 17.2154C51.9606 17.2154 52.1586 17.0174 52.1586 16.7714C52.1586 16.5254 51.9606 16.3334 51.7206 16.3334C51.4686 16.3334 51.2706 16.5254 51.2706 16.7714C51.2706 17.0174 51.4686 17.2154 51.7206 17.2154ZM51.3546 20.7734H52.0866V17.8094H51.3546V20.7734ZM56.9528 18.5774C56.9528 17.2394 56.0768 16.3094 54.8228 16.3094C53.5688 16.3094 52.6988 17.2454 52.6988 18.5774C52.6988 19.9154 53.5628 20.8454 54.8168 20.8454C56.0768 20.8454 56.9528 19.9094 56.9528 18.5774ZM56.1428 18.5774C56.1428 19.5014 55.6268 20.1074 54.8228 20.1074C54.0188 20.1074 53.5028 19.5134 53.5028 18.5774C53.5028 17.6414 54.0188 17.0474 54.8228 17.0474C55.6268 17.0474 56.1428 17.6414 56.1428 18.5774ZM57.4156 17.6114C57.4156 18.2834 57.8056 18.7094 58.5496 18.8714L59.2456 19.0274C59.6056 19.1054 59.7556 19.2794 59.7556 19.5734C59.7556 19.9394 59.4316 20.1614 58.9216 20.1614C58.4296 20.1614 58.1296 19.9394 58.1236 19.5674H57.3556C57.3736 20.3534 57.9856 20.8514 58.9216 20.8514C59.8876 20.8514 60.5236 20.3234 60.5236 19.5074C60.5236 18.8534 60.1576 18.4694 59.4076 18.3074L58.7176 18.1574C58.3516 18.0734 58.1836 17.8994 58.1836 17.5874C58.1836 17.2214 58.4896 16.9934 58.9636 16.9934C59.3956 16.9934 59.6656 17.2154 59.6836 17.5934H60.4516C60.4276 16.8014 59.8636 16.3094 58.9756 16.3094C58.0516 16.3094 57.4156 16.8434 57.4156 17.6114Z" fill="white"/>
</svg>
