<svg width="16" height="17" viewBox="0 0 16 17" fill="none" xmlns="http://www.w3.org/2000/svg">
<g clip-path="url(#clip0_3793_81381)">
<path d="M10.1 5.7383C9.58905 5.73655 9.08275 5.83557 8.61009 6.02969C8.13744 6.22381 7.7077 6.50923 7.34546 6.8696C6.98322 7.22998 6.6956 7.65825 6.49905 8.1299C6.3025 8.60156 6.20089 9.10734 6.20001 9.6183V13.5383C6.20001 13.6974 6.26323 13.85 6.37575 13.9626C6.48827 14.0751 6.64088 14.1383 6.80001 14.1383H8.20001C8.35914 14.1383 8.51175 14.0751 8.62428 13.9626C8.7368 13.85 8.80001 13.6974 8.80001 13.5383V9.6183C8.79988 9.43657 8.83805 9.25685 8.91203 9.09086C8.98602 8.92487 9.09415 8.77633 9.22939 8.65493C9.36462 8.53353 9.52393 8.442 9.69691 8.38629C9.8699 8.33059 10.0527 8.31197 10.2333 8.33164C10.5574 8.37245 10.8551 8.53075 11.0702 8.77651C11.2852 9.02228 11.4026 9.33842 11.4 9.66497V13.5383C11.4 13.6974 11.4632 13.85 11.5757 13.9626C11.6883 14.0751 11.8409 14.1383 12 14.1383H13.4C13.5591 14.1383 13.7118 14.0751 13.8243 13.9626C13.9368 13.85 14 13.6974 14 13.5383V9.6183C13.9991 9.10734 13.8975 8.60156 13.701 8.1299C13.5044 7.65825 13.2168 7.22998 12.8546 6.8696C12.4923 6.50923 12.0626 6.22381 11.5899 6.02969C11.1173 5.83557 10.611 5.73655 10.1 5.7383Z" fill="white"/>
<path d="M4.4 6.33594H2.6C2.26863 6.33594 2 6.60457 2 6.93594V13.5359C2 13.8673 2.26863 14.1359 2.6 14.1359H4.4C4.73137 14.1359 5 13.8673 5 13.5359V6.93594C5 6.60457 4.73137 6.33594 4.4 6.33594Z" fill="white"/>
<path d="M3.5 5.13672C4.32843 5.13672 5 4.46515 5 3.63672C5 2.80829 4.32843 2.13672 3.5 2.13672C2.67157 2.13672 2 2.80829 2 3.63672C2 4.46515 2.67157 5.13672 3.5 5.13672Z" fill="white"/>
</g>
<defs>
<clipPath id="clip0_3793_81381">
<rect width="16" height="16" fill="white" transform="translate(0 0.136719)"/>
</clipPath>
</defs>
</svg>
