<svg width="20" height="17" viewBox="0 0 20 17" fill="none" xmlns="http://www.w3.org/2000/svg">
<path d="M17.5556 3.55721C17.016 3.79819 16.436 3.96099 15.8274 4.03423C16.4486 3.65932 16.9258 3.06565 17.1504 2.35821C16.5689 2.70543 15.925 2.95749 15.2396 3.09334C14.6907 2.50454 13.9087 2.13672 13.0432 2.13672C11.3815 2.13672 10.0341 3.49305 10.0341 5.16605C10.0341 5.40349 10.0607 5.63472 10.1121 5.85644C7.61126 5.73011 5.39409 4.52402 3.90997 2.69118C3.65096 3.13859 3.50253 3.65895 3.50253 4.21416C3.50253 5.2652 4.03376 6.19244 4.84116 6.73568C4.34792 6.71995 3.88394 6.58366 3.47826 6.35678C3.47791 6.36941 3.47791 6.3821 3.47791 6.39488C3.47791 7.86262 4.51514 9.08695 5.89169 9.36544C5.6392 9.43469 5.37336 9.47168 5.09895 9.47168C4.90506 9.47168 4.71659 9.45263 4.53282 9.41734C4.91577 10.6208 6.02699 11.4967 7.34376 11.5211C6.31394 12.3336 5.01653 12.818 3.60669 12.818C3.36381 12.818 3.1243 12.8036 2.8889 12.7756C4.22056 13.6352 5.80222 14.1367 7.5015 14.1367C13.0362 14.1367 16.0629 9.52063 16.0629 5.51726C16.0629 5.38591 16.06 5.25531 16.0542 5.12529C16.642 4.69826 17.1521 4.16476 17.5555 3.55721H17.5556Z" fill="white"/>
</svg>
